# xmcd
#
# Track frame offsets:
#	150
#	15180
#	30542
#	42957
#	55032
#	66320
#	78702
#	92060
#	102602
#	114815
#	128412
#	140377
#	151810
#	164010
#
# Disc length: 2378 seconds
#
# Revision: 0
# Processed by: cddbd v1.4b42PL1 Copyright (c) Steve Scherf et al.
# Submitted via: EasyCDDAExtractor 4.5.0.1
#
DISCID=aa09480e
DTITLE=The Platters - Gold
DYEAR=1900
DGENRE=blues
TTITLE0=The Great Pretender
TTITLE1=My Prayer
TTITLE2=Twilight Time
TTITLE3=(You've Got) The Magic Touch
TTITLE4=Smoke Gets In Your Eyes
TTITLE5=Only You (And You Alone)
TTITLE6=I'm Sorry
TTITLE7=Red Sails In The Sunset
TTITLE8=Crying in the Chapel
TTITLE9=Harbour Lights
TTITLE10=With This Ring
TTITLE11=Heaven on Earth
TTITLE12=I Love You 1.000 Times
TTITLE13=I Love You Because
EXTD=
EXTT0=
EXTT1=
EXTT2=
EXTT3=
EXTT4=
EXTT5=
EXTT6=
EXTT7=
EXTT8=
EXTT9=
EXTT10=
EXTT11=
EXTT12=
EXTT13=
PLAYORDER=
